<?xml version="1.0" encoding="iso-8859-1"?>
<!-- Generator: Adobe Illustrator 19.0.0, SVG Export Plug-In . SVG Version: 6.00 Build 0)  -->
<svg version="1.1" id="Capa_1" xmlns="http://www.w3.org/2000/svg" xmlns:xlink="http://www.w3.org/1999/xlink" x="0px" y="0px"
	 viewBox="0 0 512 512" style="enable-background:new 0 0 512 512;" xml:space="preserve">
<g>
	<g>
		<path d="M277.85,236.418h-43.688c-6.521,0-12.581,2.007-17.6,5.432C170.439,208.823,98.699,145.724,114.52,81.713
			c0.994-4.021-1.46-8.086-5.481-9.08c-4.023-0.993-8.087,1.46-9.08,5.481c-8.089,32.727,2.036,67.708,30.094,103.974
			c22.671,29.302,53.362,54.354,76.449,71.001c-2.32,4.369-3.641,9.347-3.641,14.629c0,12.591,7.478,23.463,18.222,28.426v44.489
			c0,3.492-2.84,6.332-6.332,6.332h-17.33c-15.089,0-27.366,12.276-27.366,27.366c0,15.089,12.276,27.366,27.366,27.366h16.404
			c4.002,0,7.257,3.256,7.257,7.257c0,4.002-3.255,7.257-7.257,7.257h-15.879c-14.14,0-26.045,10.339-27.691,24.049
			c-0.935,7.777,1.508,15.595,6.701,21.449c5.206,5.869,12.665,9.234,20.465,9.234h17.528c4.793,0,5.985,3.453,6.134,6.272
			C221.157,496.409,236.795,512,256.005,512c19.256,0,34.923-15.667,34.923-34.923v-29.044c0-4.142-3.358-7.5-7.5-7.5
			c-4.142,0-7.5,3.358-7.5,7.5v29.044c0,10.985-8.938,19.923-19.923,19.923c-10.985,0-19.923-8.938-19.923-19.923
			c0-0.057,0-0.113-0.002-0.17c-0.191-8.427-5.976-20.964-21.132-20.964H197.42c-3.514,0-6.883-1.527-9.244-4.188
			c-2.383-2.686-3.458-6.133-3.029-9.706c0.742-6.178,6.244-10.837,12.799-10.837h15.879c12.273,0,22.257-9.984,22.257-22.257
			c0-12.273-9.984-22.257-22.257-22.257h-16.404c-6.818,0-12.366-5.547-12.366-12.366c0-6.818,5.547-12.366,12.366-12.366h17.33
			c11.763,0,21.332-9.569,21.332-21.332V299.02h39.846v115.113c0,4.142,3.358,7.5,7.5,7.5c4.142,0,7.5-3.358,7.5-7.5V296.144
			c10.744-4.963,18.222-15.835,18.222-28.426C309.15,250.459,295.108,236.418,277.85,236.418z M277.85,284.019h-43.688
			c-8.988,0-16.3-7.313-16.3-16.3s7.313-16.3,16.3-16.3h43.688c8.988,0,16.3,7.313,16.3,16.3S286.837,284.019,277.85,284.019z"/>
	</g>
</g>
<g>
	<g>
		<path d="M347.105,63.803c-10.608-11.621-32.223-17.454-53.01-6.115c-14.46,7.888-26.563,11.562-38.088,11.562
			c-12.121,0-24.529-3.754-37.936-11.477c-15.763-9.08-42.096-6.094-53.164,6.03c-17.061,18.688-17.516,32.985-16.374,42.113
			c3.821,30.562,38.509,71.493,92.787,109.493c4.393,3.075,9.538,4.612,14.686,4.612c5.146,0,10.293-1.538,14.685-4.612
			c54.279-38,88.966-78.932,92.789-109.492C364.622,96.788,364.167,82.491,347.105,63.803z M348.595,104.054
			c-3.256,26.028-36.403,63.988-86.507,99.066c-3.639,2.547-8.527,2.547-12.165,0c-50.104-35.077-83.251-73.037-86.507-99.066
			c-0.891-7.119,0.657-15.618,12.568-30.138c9.029-11.007,30.524-5.493,34.598-3.146c15.746,9.07,30.604,13.479,45.423,13.479
			c14.135,0,28.521-4.256,45.272-13.394c10.34-5.642,26.034-6.487,34.749,3.06C348.689,87.785,349.485,96.934,348.595,104.054z"/>
	</g>
</g>
<g>
	<g>
		<path d="M384.695,29.487C369.8,13.171,349.413,2.886,327.289,0.526c-21.593-2.303-43.49,3-61.66,14.933
			c-5.846,3.839-13.401,3.839-19.247,0c-18.169-11.932-40.066-17.232-61.66-14.933c-22.124,2.36-42.511,12.645-57.406,28.96
			c-5.593,6.126-10.471,12.481-14.5,18.887c-2.205,3.506-1.15,8.137,2.356,10.342c3.506,2.204,8.137,1.15,10.342-2.356
			c3.554-5.652,7.888-11.291,12.88-16.759c12.423-13.608,29.441-22.188,47.918-24.158c18.152-1.933,36.56,2.523,51.835,12.555
			c10.849,7.124,24.867,7.124,35.716,0c15.275-10.033,33.682-14.492,51.835-12.555c18.478,1.971,35.496,10.55,47.918,24.158
			c19.001,20.814,27.708,43.308,25.879,66.857c-3.622,46.63-47.148,90.711-83.024,119.479c-3.231,2.591-3.75,7.312-1.159,10.543
			c1.481,1.848,5.677,4.899,10.543,1.159c38.81-29.83,84.558-78.036,88.595-130.02C416.614,79.771,406.602,53.484,384.695,29.487z"
			/>
	</g>
</g>
<g>
</g>
<g>
</g>
<g>
</g>
<g>
</g>
<g>
</g>
<g>
</g>
<g>
</g>
<g>
</g>
<g>
</g>
<g>
</g>
<g>
</g>
<g>
</g>
<g>
</g>
<g>
</g>
<g>
</g>
</svg>
