<svg id="Capa_1" enable-background="new 0 0 512 512" height="512" viewBox="0 0 512 512" width="512" xmlns="http://www.w3.org/2000/svg"><g><g><path d="m453.053 261.264h-215.371c-18.398 0-33.313 14.915-33.313 33.313v121.438c0 18.398 14.915 33.313 33.313 33.313h57.55c3.019 0 5.863 1.417 7.682 3.827l36.545 48.424c2.962 3.925 8.856 3.925 11.818 0l36.545-48.424c1.819-2.41 4.663-3.827 7.682-3.827h57.55c18.398 0 33.313-14.915 33.313-33.313v-121.438c-.001-18.398-14.916-33.313-33.314-33.313z" fill="#df75a5"/></g><g><path d="m459.863 261.963c.457 2.199.699 4.476.699 6.81v142.167c0 6.95-5.635 12.585-12.585 12.585h-236.099c-2.334 0-4.612-.242-6.81-.699 3.144 15.132 16.55 26.503 32.614 26.503h57.55c3.019 0 5.863 1.417 7.682 3.827l36.545 48.424c2.962 3.925 8.856 3.925 11.818 0l36.545-48.424c1.819-2.41 4.663-3.827 7.682-3.827h57.55c18.398 0 33.313-14.915 33.313-33.313v-121.439c-.001-16.064-11.372-29.47-26.504-32.614z" fill="#dd5790"/></g><g><path d="m374.027 411.825h-57.319c-14.997 0-27.155-12.158-27.155-27.155v-57.319c0-14.997 12.158-27.155 27.155-27.155h57.319c14.997 0 27.155 12.158 27.155 27.155v57.319c0 14.997-12.158 27.155-27.155 27.155z" fill="#fff0af"/></g><g><path d="m382.68 301.59c.899 2.695 1.394 5.576 1.394 8.574v57.478c0 14.953-12.122 27.076-27.075 27.076h-57.479c-2.998 0-5.878-.494-8.574-1.394 3.587 10.75 13.726 18.502 25.682 18.502h57.478c14.953 0 27.075-12.122 27.075-27.076v-57.478c0-11.956-7.752-22.094-18.501-25.682z" fill="#ffe07d"/></g><g><circle cx="345.367" cy="356.011" fill="#df75a5" r="20.743"/></g><path d="m350.661 335.976c.446 1.693.708 3.461.708 5.294 0 11.456-9.287 20.743-20.743 20.743-1.833 0-3.601-.261-5.294-.708 2.343 8.887 10.412 15.449 20.035 15.449 11.456 0 20.743-9.287 20.743-20.742 0-9.624-6.563-17.693-15.449-20.036z" fill="#dd5790"/><g><path d="m394.394 7.478h-215.371c-18.398 0-33.313 14.915-33.313 33.313v121.438c0 18.398 14.915 33.313 33.313 33.313h57.55c3.019 0 5.863 1.417 7.682 3.827l36.545 48.424c2.962 3.925 8.856 3.925 11.818 0l36.545-48.424c1.819-2.41 4.663-3.826 7.682-3.826h57.55c18.398 0 33.313-14.915 33.313-33.313v-121.439c-.001-18.398-14.916-33.313-33.314-33.313z" fill="#4278c3"/></g><g><path d="m401.205 8.177c.457 2.199.699 4.476.699 6.81v142.166c0 6.951-5.635 12.585-12.585 12.585h-236.099c-2.334 0-4.612-.242-6.81-.699 3.144 15.132 16.55 26.503 32.614 26.503h57.55c3.019 0 5.863 1.417 7.682 3.827l36.545 48.424c2.962 3.925 8.856 3.925 11.818 0l36.545-48.424c1.819-2.41 4.663-3.826 7.682-3.826h57.55c18.398 0 33.313-14.915 33.313-33.313v-121.439c-.002-16.064-11.373-29.47-26.504-32.614z" fill="#335995"/></g><g><g><g><path d="m314.548 65.267h7.698c1.099 0 1.99-.891 1.99-1.99v-27.346c0-1.099-.891-1.99-1.99-1.99h-7.697c-26.483 0-47.952 21.469-47.952 47.952v6.979c0 .733-.594 1.326-1.326 1.326h-13.4c-1.099 0-1.99.891-1.99 1.99v27.347c0 1.099.891 1.99 1.99 1.99h13.4c.733 0 1.326.594 1.326 1.326v53.918c0 1.099.891 1.99 1.99 1.99h27.347c1.099 0 1.99-.891 1.99-1.99v-53.918c0-.733.594-1.326 1.326-1.326h13.4c1.099 0 1.99-.891 1.99-1.99v-27.346c0-1.099-.891-1.99-1.99-1.99h-13.4c-.733 0-1.326-.594-1.326-1.326v-6.98c-.002-9.183 7.442-16.626 16.624-16.626z" fill="#f4fbff"/></g></g></g><g><path d="m322.246 33.941h-7.697c-1.631 0-3.242.083-4.831.242.626.335 1.057.987 1.057 1.747v27.346c0 1.099-.891 1.99-1.99 1.99h-7.698c-9.182 0-16.626 7.444-16.626 16.626v6.98c0 .733.594 1.326 1.326 1.326h13.4c1.099 0 1.99.891 1.99 1.99v27.347c0 1.099-.891 1.99-1.99 1.99h-13.4c-.733 0-1.326.594-1.326 1.326v53.918c0 1.099-.891 1.99-1.99 1.99h13.461c1.099 0 1.99-.891 1.99-1.99v-53.918c0-.733.594-1.326 1.326-1.326h13.4c1.099 0 1.99-.891 1.99-1.99v-27.347c0-1.099-.891-1.99-1.99-1.99h-13.4c-.733 0-1.326-.594-1.326-1.326v-6.98c0-9.182 7.444-16.626 16.626-16.626h7.698c1.099 0 1.99-.891 1.99-1.99v-27.345c-.001-1.099-.892-1.99-1.99-1.99z" fill="#e4f6ff"/></g><g><path d="m274.319 154.847h-215.371c-18.398 0-33.313 14.915-33.313 33.313v121.438c0 18.398 14.915 33.313 33.313 33.313h57.55c3.019 0 5.863 1.417 7.682 3.827l36.545 48.424c2.962 3.925 8.856 3.925 11.818 0l36.545-48.424c1.819-2.41 4.663-3.827 7.682-3.827h57.55c18.398 0 33.313-14.915 33.313-33.313v-121.438c-.001-18.398-14.916-33.313-33.314-33.313z" fill="#bed8fb"/></g><g><path d="m281.129 155.546c.457 2.199.699 4.476.699 6.81v142.166c0 6.95-5.635 12.585-12.585 12.585h-236.099c-2.334 0-4.612-.242-6.81-.699 3.144 15.132 16.55 26.503 32.614 26.503h57.55c3.019 0 5.863 1.417 7.682 3.827l36.545 48.424c2.962 3.925 8.856 3.925 11.818 0l36.545-48.424c1.819-2.41 4.663-3.827 7.682-3.827h57.55c18.398 0 33.313-14.915 33.313-33.313v-121.438c-.001-16.064-11.372-29.47-26.504-32.614z" fill="#9dc6fb"/></g><g><g><path d="m212.558 276.797c-2.316 0-4.601-.13-6.852-.373-.879-.095-1.258-1.156-.642-1.791.005-.005.01-.01.015-.016 19.641-20.229 23.206-50.108 10.953-73.853-.756-1.466-2.813-1.588-3.7-.197-2.29 3.593-4.973 7.01-8.057 10.187-10.539 10.855-23.994 17.157-37.923 18.89-.413.051-.776-.266-.798-.681-.973-18.349-16.149-32.93-34.74-32.93-13.405 0-25.034 7.582-30.847 18.688-.247.473-.729.775-1.263.775h-16.639c-1.057 0-1.749 1.109-1.277 2.055 1.115 2.232 3.406 5.871 7.514 8.794.444.316.383.992-.111 1.222l-7.039 3.273c-.963.447-1.115 1.746-.285 2.408 2.489 1.981 7.665 5.22 14.886 5.192.651-.003 1.203.46 1.365 1.09 2.585 10.046 9.54 18.333 18.722 22.717.571.273.996.774 1.161 1.385 7.348 27.206 32.2 47.226 61.73 47.226 24.63 0 46.004-13.928 56.684-34.336.897-1.714-.758-3.622-2.593-3.009-6.367 2.128-13.18 3.284-20.264 3.284z" fill="#f4fbff"/></g></g><g><path d="m232.823 273.513c-6.368 2.128-13.181 3.284-20.265 3.284-2.316 0-4.601-.13-6.852-.373-.879-.095-1.258-1.156-.642-1.791.005-.005.01-.01.015-.016 19.641-20.229 23.206-50.108 10.953-73.853-.757-1.466-2.813-1.588-3.7-.197-2.29 3.593-4.973 7.01-8.057 10.187-4.479 4.614-9.489 8.396-14.834 11.364 2.325 18.585-3.492 38.015-17.555 52.5-.005.005-.01.01-.015.016-.616.634-.237 1.695.642 1.791 2.251.243 4.536.373 6.852.373 7.084 0 13.897-1.155 20.265-3.284 1.835-.613 3.49 1.295 2.593 3.009-8.19 15.651-22.673 27.481-40.087 32.151 5.294 1.419 10.855 2.185 16.597 2.185 24.63 0 46.004-13.928 56.684-34.336.895-1.715-.76-3.623-2.594-3.01z" fill="#e4f6ff"/></g><g><path d="m486.366 308.083c4.13 0 7.478-3.348 7.478-7.478v-6.027c0-22.493-18.299-40.792-40.791-40.792h-137.943v-23.384l20.02-26.529c.403-.535 1.044-.853 1.713-.853h57.55c22.493 0 40.792-18.299 40.792-40.791v-121.437c0-22.493-18.299-40.792-40.791-40.792h-215.371c-22.492 0-40.791 18.299-40.791 40.792v33.148c0 4.13 3.348 7.478 7.478 7.478s7.478-3.348 7.478-7.478v-33.148c0-14.246 11.59-25.835 25.835-25.835h215.371c14.245 0 25.835 11.59 25.835 25.835v121.437c0 14.245-11.59 25.835-25.835 25.835h-57.55c-5.334 0-10.437 2.542-13.65 6.8l-8.083 10.711v-17.415c0-10.05-3.661-19.257-9.71-26.374v-32.783h7.248c5.22 0 9.467-4.247 9.467-9.467v-27.348c0-5.221-4.247-9.467-9.467-9.467h-7.249v-.829c0-5.044 4.104-9.148 9.148-9.148h7.697c5.22 0 9.467-4.247 9.467-9.467v-27.346c0-5.221-4.247-9.468-9.467-9.468h-7.697c-30.564 0-55.429 24.866-55.429 55.43v.828h-7.248c-5.221 0-9.467 4.247-9.467 9.467v27.347c0 5.221 4.247 9.467 9.467 9.467h7.248v18.367h-105.931v-37.648c0-4.13-3.348-7.478-7.478-7.478s-7.478 3.348-7.478 7.478v37.648h-79.285c-22.492 0-40.791 18.299-40.791 40.791v121.437c0 22.492 18.299 40.791 40.791 40.791h57.551c.669 0 1.309.319 1.712.853l6.998 9.273c2.488 3.296 7.178 3.953 10.474 1.464 3.297-2.488 3.953-7.177 1.465-10.474l-6.999-9.273c-3.214-4.258-8.316-6.8-13.65-6.8h-57.551c-14.245 0-25.835-11.59-25.835-25.835v-121.436c0-14.245 11.59-25.835 25.835-25.835h215.371c14.245 0 25.835 11.59 25.835 25.835v121.437c0 14.245-11.59 25.835-25.835 25.835h-57.55c-5.335 0-10.438 2.542-13.65 6.8l-36.485 48.344-8.419-11.155c-2.487-3.296-7.176-3.953-10.474-1.464-3.296 2.488-3.952 7.177-1.464 10.474l8.479 11.235c2.838 3.76 7.167 5.917 11.879 5.917 4.71 0 9.04-2.157 11.877-5.917l18.379-24.353v40.702c0 22.492 18.299 40.791 40.792 40.791h57.55c.669 0 1.31.319 1.713.853l36.544 48.424c2.837 3.76 7.167 5.917 11.877 5.917 4.711 0 9.041-2.157 11.878-5.917l36.544-48.424c.403-.535 1.044-.853 1.714-.853h57.55c22.492 0 40.791-18.299 40.791-40.791v-79.079c0-4.13-3.348-7.478-7.478-7.478s-7.478 3.348-7.478 7.478v79.079c0 14.245-11.589 25.835-25.835 25.835h-57.55c-5.335 0-10.438 2.542-13.651 6.8l-36.485 48.344-36.484-48.344c-3.213-4.258-8.316-6.8-13.65-6.8h-57.55c-14.246 0-25.835-11.59-25.835-25.835v-60.004c0-.163-.014-.323-.024-.483l3.234-4.286c.403-.534 1.043-.853 1.712-.853h57.55c2.652 0 5.243-.263 7.756-.749v35.11c0 19.053 15.5 34.554 34.554 34.554h57.477c19.054 0 34.554-15.5 34.554-34.554v-57.478c0-19.053-15.501-34.554-34.554-34.554 0 0-58.49.027-58.995.049v-24.025h137.943c14.245 0 25.835 11.59 25.835 25.835v6.027c-.001 4.13 3.346 7.479 7.477 7.479zm-212.291-160.714v-24.518c0-4.855-3.95-8.805-8.805-8.805h-7.91v-16.369h7.91c4.855 0 8.805-3.95 8.805-8.805v-6.98c0-22.317 18.156-40.474 40.473-40.474h2.208v16.37h-2.208c-13.291 0-24.104 10.813-24.104 24.104v6.98c0 4.855 3.949 8.805 8.804 8.805h7.911v16.369h-7.911c-4.855 0-8.804 3.95-8.804 8.805v27.848c-4.949-2.139-10.4-3.33-16.126-3.33zm100.031 160.305c10.806 0 19.598 8.792 19.598 19.598v57.478c0 10.806-8.792 19.597-19.598 19.597h-57.477c-10.806 0-19.598-8.791-19.598-19.597v-41.286c10.896-7.331 18.08-19.775 18.08-33.866v-1.86c.503-.038 58.995-.064 58.995-.064z"/><path d="m345.367 384.231c15.561 0 28.22-12.66 28.22-28.221s-12.659-28.221-28.22-28.221-28.221 12.66-28.221 28.221 12.661 28.221 28.221 28.221zm0-41.485c7.314 0 13.264 5.95 13.264 13.264s-5.95 13.264-13.264 13.264c-7.315 0-13.265-5.95-13.265-13.264s5.951-13.264 13.265-13.264z"/><path d="m72.912 231.077c-.368 3.086.866 6.085 3.298 8.021 2.676 2.13 7.842 5.457 14.983 6.498 3.522 9.482 10.327 17.38 19.252 22.284 9.138 29.828 36.88 50.456 68.287 50.456 26.673 0 50.931-14.694 63.309-38.347 1.827-3.492 1.358-7.685-1.195-10.682-2.562-3.008-6.641-4.141-10.395-2.887-3.678 1.229-7.464 2.072-11.317 2.519 13.774-21.206 15.464-48.502 3.543-71.604-1.578-3.058-4.692-5.055-8.128-5.212-3.422-.148-6.685 1.54-8.523 4.425-2.055 3.223-4.449 6.251-7.117 8.998-7.485 7.71-16.711 12.99-26.969 15.486-4.43-18.714-21.237-32.477-41.127-32.477-14.532 0-27.853 7.37-35.596 19.464h-13.152c-3.108 0-5.94 1.578-7.574 4.221-1.633 2.641-1.78 5.875-.393 8.653.595 1.191 1.385 2.576 2.414 4.039-1.991 1.44-3.302 3.64-3.6 6.145zm22.147-8.102h3.644c3.321 0 6.344-1.834 7.888-4.785 4.739-9.054 14.02-14.678 24.222-14.678 14.524 0 26.503 11.353 27.272 25.854.122 2.267 1.19 4.402 2.931 5.857 1.736 1.451 4.019 2.121 6.258 1.843 16.046-1.996 31.092-9.49 42.365-21.101 1.107-1.14 2.177-2.319 3.207-3.532 6.507 19.723 1.684 41.715-13.133 56.976-.005.005-.01.01-.015.015-.002.002-.003.004-.005.005-2.29 2.362-3.019 5.749-1.904 8.842 1.116 3.094 3.842 5.235 7.111 5.588 5.617.607 11.212.541 16.677-.15-10.592 12.359-26.12 19.671-42.847 19.671-25.464 0-47.879-17.147-54.512-41.704-.734-2.71-2.612-4.961-5.157-6.178-7.328-3.499-12.686-9.999-14.702-17.831-1.017-3.953-4.551-6.706-8.603-6.706-.011 0-.022 0-.034 0-.238.001-.474-.003-.706-.013.562-.992.919-2.105 1.027-3.272.154-1.652-.206-3.288-.984-4.701z"/><circle cx="375.472" cy="325.266" r="8.413"/><circle cx="125.6" cy="227.898" r="8.413"/></g></g></svg>